<svg xmlns="http://www.w3.org/2000/svg" width="100%" height="100%" viewBox="0 0 800 400"><rect fill="#4A90E2" width="800" height="400"/><path fill="#357ABD" fill-opacity="0.2" d="M0 192L26.7 202.7C53.3 213 107 235 160 234.7C213.3 235 267 213 320 197.3C373.3 181 427 171 480 186.7C533.3 203 587 245 640 250.7C693.3 256 747 224 773.3 208L800 192L800 401L773.3 401C746.7 401 693 401 640 401C586.7 401 533 401 480 401C426.7 401 373 401 320 401C266.7 401 213 401 160 401C106.7 401 53 401 27 401L0 401Z"></path></svg>